# xmcd
#
# Track frame offsets:
#	150
#	13068
#	27378
#	39818
#	51188
#	63143
#	74273
#	84105
#	97578
#	108730
#	120395
#	130835
#
# Disc length: 1907 seconds
#
# Revision: 1
# Processed by: cddbd v1.4PL0 Copyright (c) Steve Scherf et al.
# Submitted via: audiograbber 1.81.01
#
DISCID=8b07710c
DTITLE=Various Artist - Country Jukebox Hits 2
DYEAR=1990
DGENRE=Country
TTITLE0=Kenny Rogers - Ruby Don't Take Your Love To Town
TTITLE1=George Jones - It's A Good Year For The Roses
TTITLE2=Johnny Paycheck - I'm Not Looking Back Anymore
TTITLE3=Patsy Cline - I've Loved And Lost Again
TTITLE4=Johnny Cash - You're The Nearest Thing To Heaven
TTITLE5=Don Gibson - Oh Lonesome Me
TTITLE6=Ned Miller - From A Jack To A King
TTITLE7=Lynn Anderson - Rose Garden
TTITLE8=Waylon Jennings - Dream Baby
TTITLE9=Lovin' Spoonful - Nashville Cats
TTITLE10=Willie Nelson - Blame It On The Time
TTITLE11=Freddy Fender - Wasted Days And Wasted Nights
EXTD=
EXTT0=
EXTT1=
EXTT2=
EXTT3=
EXTT4=
EXTT5=
EXTT6=
EXTT7=
EXTT8=
EXTT9=
EXTT10=
EXTT11=
PLAYORDER=
